# xmcd
#
# Track frame offsets: 
#        150
#        12377
#        24487
#        39602
#        54826
#        69953
#        82728
#        97160
#        107215
#        122031
#        143543
#
# Disc length: 2121 seconds
#
# Revision: 0
# Processed by: cddbd v1.5.2PL0 Copyright (c) Steve Scherf et al.
# Submitted via: ExactAudioCopyFreeDBPlugin 1.0
#
DISCID=8508470b
DTITLE=Philippe Robrecht - Eiland
DYEAR=2012
DGENRE=Pop-Folk
TTITLE0=Maakt het wat uit
TTITLE1=Parels
TTITLE2=Gaan we door
TTITLE3=Oude liefde
TTITLE4=Grafschrift
TTITLE5=Eiland
TTITLE6=Sporen
TTITLE7=De branding komt
TTITLE8=Ver van hier
TTITLE9='k Geef je
TTITLE10=Ocean (Luke Murray)
EXTD=
EXTT0=
EXTT1=
EXTT2=
EXTT3=
EXTT4=
EXTT5=
EXTT6=
EXTT7=
EXTT8=
EXTT9=
EXTT10=
PLAYORDER=
